;TYPE=PLATED
;Layer: PTH_Through
;EasyEDA Pro v2.1.64.d1969c9c.217bcf, 2024-08-09 12:31:45
;Gerber Generator version 0.3
M48
METRIC,LZ,000.00000
;Hole size 1 = 0.30000 METRIC
T01C0.30000
;Hole size 2 = 1.00000 METRIC
T02C1.00000
;Hole size 3 = 1.70000 METRIC
T03C1.70000
%
G05
G90
T01
X-02200000Y04200000
X-02009600Y04296845
X-01936744Y04296845
X-02009600Y04223750
X-02196160Y04105656
X-00924560Y04293718
X-01104900Y04293718
X-01334618Y04665980
X-01334618Y04846320
X-01317659Y03891279
X-01650001Y04500002
X-01650001Y04900003
X-02200000Y04640170
X-01640001Y03890002
X-03200000Y04800000
X-02600000Y04200000
X-02400000Y04200000
X-02600000Y04600000
X-02400000Y04600000
X-02000000Y04800000
X-01100000Y04800000
X-00700000Y04000000
X-00700000Y03800000
X-01100000Y04000000
X-01100000Y03800000
X-02000000Y03800000
X-02000000Y04600000
T02
X-02966312Y03776195G85X-03116312Y03776195
X-02966312Y04946188G85X-03116312Y04946188
X-02841320Y04711192
X-02841320Y04461193
X-02841320Y04261193
X-02841320Y04011193
T03
X-00900000Y03900000
M30