G04 Layer: DrillDrawingLayer*
G04 EasyEDA Pro v2.1.64.d1969c9c.217bcf, 2024-08-09 12:31:45*
G04 Gerber Generator version 0.3*
G04 Scale: 100 percent, Rotated: No, Reflected: No*
G04 Dimensions in millimeters*
G04 Leading zeros omitted, absolute positions, 3 integers and 5 decimals*
%FSLAX35Y35*%
%MOMM*%
%ADD10C,0.254*%
G75*


G04 Image Start*
G36*
G01X-2519934Y4819955D02*
G01X-2519934Y4816297D01*
G01X-2516327D01*
G01X-2483663D01*
G01Y4783684D01*
G01X-2516327D01*
G01Y4816297D01*
G01X-2519934D01*
G01Y4780077D01*
G01X-2480056D01*
G01Y4819955D01*
G37*
G36*
G01X-900024Y3919931D02*
G01X-902056Y3919830D01*
G01X-904037Y3919525D01*
G01X-905916Y3919068D01*
G01X-907745Y3918356D01*
G01X-909523Y3917544D01*
G01X-911149Y3916528D01*
G01X-912673Y3915410D01*
G01X-914095Y3914089D01*
G01X-915365Y3912667D01*
G01X-916534Y3911143D01*
G01X-917550Y3909517D01*
G01X-918362Y3907739D01*
G01X-919023Y3905910D01*
G01X-919531Y3904031D01*
G01X-919836Y3902050D01*
G01X-919937Y3900018D01*
G01X-916635D01*
G01X-916534Y3901694D01*
G01X-916280Y3903320D01*
G01X-915873Y3904945D01*
G01X-915314Y3906469D01*
G01X-914603Y3907892D01*
G01X-913790Y3909263D01*
G01X-912825Y3910584D01*
G01X-911758Y3911752D01*
G01X-910539Y3912819D01*
G01X-909269Y3913784D01*
G01X-907898Y3914597D01*
G01X-906475Y3915308D01*
G01X-904951Y3915867D01*
G01X-903326Y3916274D01*
G01X-901700Y3916528D01*
G01X-900024Y3916629D01*
G01X-898296Y3916528D01*
G01X-896671Y3916274D01*
G01X-895045Y3915867D01*
G01X-893521Y3915308D01*
G01X-892099Y3914597D01*
G01X-890727Y3913784D01*
G01X-889457Y3912819D01*
G01X-888238Y3911752D01*
G01X-887171Y3910584D01*
G01X-886206Y3909263D01*
G01X-885393Y3907892D01*
G01X-884682Y3906469D01*
G01X-884123Y3904945D01*
G01X-883717Y3903320D01*
G01X-883463Y3901694D01*
G01X-883361Y3900018D01*
G01X-883463Y3898290D01*
G01X-883717Y3896665D01*
G01X-884123Y3895039D01*
G01X-884682Y3893515D01*
G01X-885393Y3892093D01*
G01X-886206Y3890721D01*
G01X-887171Y3889451D01*
G01X-888238Y3888232D01*
G01X-889457Y3887165D01*
G01X-890727Y3886251D01*
G01X-892099Y3885387D01*
G01X-893521Y3884676D01*
G01X-895045Y3884117D01*
G01X-896671Y3883711D01*
G01X-898296Y3883457D01*
G01X-900024Y3883406D01*
G01X-901700Y3883457D01*
G01X-903326Y3883711D01*
G01X-904951Y3884117D01*
G01X-906475Y3884676D01*
G01X-907898Y3885387D01*
G01X-909269Y3886251D01*
G01X-910539Y3887165D01*
G01X-911758Y3888232D01*
G01X-912825Y3889451D01*
G01X-913790Y3890721D01*
G01X-914603Y3892093D01*
G01X-915314Y3893515D01*
G01X-915873Y3895039D01*
G01X-916280Y3896665D01*
G01X-916534Y3898290D01*
G01X-916635Y3900018D01*
G01X-919937D01*
G01X-919836Y3897986D01*
G01X-919531Y3896004D01*
G01X-919023Y3894074D01*
G01X-918362Y3892245D01*
G01X-917550Y3890518D01*
G01X-916534Y3888842D01*
G01X-915365Y3887318D01*
G01X-914095Y3885895D01*
G01X-912673Y3884625D01*
G01X-911149Y3883457D01*
G01X-909523Y3882492D01*
G01X-907745Y3881628D01*
G01X-905916Y3880968D01*
G01X-904037Y3880460D01*
G01X-902056Y3880155D01*
G01X-900024Y3880053D01*
G01X-897941Y3880155D01*
G01X-895960Y3880460D01*
G01X-894080Y3880968D01*
G01X-892251Y3881628D01*
G01X-890473Y3882492D01*
G01X-888848Y3883457D01*
G01X-887324Y3884625D01*
G01X-885901Y3885895D01*
G01X-884631Y3887318D01*
G01X-883463Y3888842D01*
G01X-882447Y3890518D01*
G01X-881634Y3892245D01*
G01X-880974Y3894074D01*
G01X-880466Y3896004D01*
G01X-880161Y3897986D01*
G01X-880059Y3900018D01*
G01X-880161Y3902050D01*
G01X-880466Y3904031D01*
G01X-880974Y3905910D01*
G01X-881634Y3907739D01*
G01X-882447Y3909517D01*
G01X-883463Y3911143D01*
G01X-884631Y3912667D01*
G01X-885901Y3914089D01*
G01X-887324Y3915410D01*
G01X-888848Y3916528D01*
G01X-890473Y3917544D01*
G01X-892251Y3918356D01*
G01X-894080Y3919068D01*
G01X-895960Y3919525D01*
G01X-897941Y3919830D01*
G37*
G36*
G01X-494894Y4911852D02*
G01X-492963Y4908499D01*
G01X-489153D01*
G01X-460807D01*
G01X-467868Y4896256D01*
G01X-474980Y4883963D01*
G01X-482092Y4896256D01*
G01X-489153Y4908499D01*
G01X-492963D01*
G01X-474980Y4877308D01*
G01X-465023Y4894580D01*
G01X-455016Y4911852D01*
G37*
G36*
G01X-495046Y3841852D02*
G01X-493116Y3838499D01*
G01X-489306D01*
G01X-460959D01*
G01X-468020Y3826256D01*
G01X-475132Y3813962D01*
G01X-482244Y3826256D01*
G01X-489306Y3838499D01*
G01X-493116D01*
G01X-475132Y3807308D01*
G01X-465176Y3824580D01*
G01X-455168Y3841852D01*
G37*
G36*
G01X-3041294Y3799230D02*
G01X-3047086Y3786175D01*
G01X-3061259Y3787699D01*
G01X-3052826Y3776218D01*
G01X-3058160Y3768903D01*
G01X-3053944D01*
G01X-3050083Y3774186D01*
G01X-3048610Y3776218D01*
G01X-3050083Y3778199D01*
G01X-3053944Y3783482D01*
G01X-3047441Y3782771D01*
G01X-3044952Y3782517D01*
G01X-3041294Y3790747D01*
G01X-3038704Y3784803D01*
G01X-3037688Y3782517D01*
G01X-3035198Y3782771D01*
G01X-3028696Y3783482D01*
G01X-3032557Y3778199D01*
G01X-3034030Y3776218D01*
G01X-3032557Y3774186D01*
G01X-3028696Y3768903D01*
G01X-3035198Y3769614D01*
G01X-3037688Y3769868D01*
G01X-3038653Y3767582D01*
G01X-3041294Y3761638D01*
G01X-3044952Y3769868D01*
G01X-3047441Y3769614D01*
G01X-3053944Y3768903D01*
G01X-3058160D01*
G01X-3061259Y3764686D01*
G01X-3047086Y3766210D01*
G01X-3041294Y3753155D01*
G01X-3035554Y3766210D01*
G01X-3021381Y3764686D01*
G01X-3029814Y3776218D01*
G01X-3021381Y3787699D01*
G01X-3035554Y3786175D01*
G37*
G36*
G01X-3041294Y4969205D02*
G01X-3047086Y4956150D01*
G01X-3061259Y4957674D01*
G01X-3052826Y4946193D01*
G01X-3058160Y4938878D01*
G01X-3053944D01*
G01X-3050083Y4944161D01*
G01X-3048610Y4946193D01*
G01X-3050083Y4948225D01*
G01X-3053944Y4953457D01*
G01X-3047441Y4952746D01*
G01X-3044952Y4952492D01*
G01X-3043936Y4954778D01*
G01X-3041294Y4960772D01*
G01X-3038704Y4954778D01*
G01X-3037688Y4952492D01*
G01X-3035198Y4952746D01*
G01X-3028696Y4953457D01*
G01X-3032557Y4948225D01*
G01X-3034030Y4946193D01*
G01X-3032557Y4944161D01*
G01X-3028696Y4938878D01*
G01X-3035198Y4939589D01*
G01X-3037688Y4939894D01*
G01X-3038653Y4937608D01*
G01X-3041294Y4931613D01*
G01X-3043936Y4937608D01*
G01X-3044952Y4939894D01*
G01X-3047441Y4939589D01*
G01X-3053944Y4938878D01*
G01X-3058160D01*
G01X-3061259Y4934661D01*
G01X-3047086Y4936236D01*
G01X-3041294Y4923180D01*
G01X-3035554Y4936236D01*
G01X-3021381Y4934661D01*
G01X-3029814Y4946193D01*
G01X-3021381Y4957674D01*
G01X-3035554Y4956150D01*
G37*
G36*
G01X-2861259Y4731106D02*
G01X-2858160Y4724349D01*
G01X-2854503D01*
G01X-2842717Y4718964D01*
G01X-2841295Y4718304D01*
G01X-2839923Y4718964D01*
G01X-2828138Y4724349D01*
G01X-2833573Y4712564D01*
G01X-2834183Y4711192D01*
G01X-2833573Y4709820D01*
G01X-2828138Y4698035D01*
G01X-2839923Y4703420D01*
G01X-2841295Y4704080D01*
G01X-2842717Y4703420D01*
G01X-2854503Y4698035D01*
G01X-2849067Y4709820D01*
G01X-2848458Y4711192D01*
G01X-2849067Y4712564D01*
G01X-2854503Y4724349D01*
G01X-2858160D01*
G01X-2852115Y4711192D01*
G01X-2861259Y4691228D01*
G01X-2841295Y4700422D01*
G01X-2821381Y4691228D01*
G01X-2830525Y4711192D01*
G01X-2821381Y4731106D01*
G01X-2841295Y4721962D01*
G37*
G36*
G01X-2861259Y4481119D02*
G01X-2858160Y4474362D01*
G01X-2854503D01*
G01X-2842717Y4468927D01*
G01X-2841295Y4468317D01*
G01X-2839923Y4468927D01*
G01X-2828138Y4474362D01*
G01X-2833573Y4462577D01*
G01X-2834183Y4461205D01*
G01X-2833573Y4459783D01*
G01X-2828138Y4447997D01*
G01X-2839923Y4453433D01*
G01X-2841295Y4454093D01*
G01X-2842717Y4453433D01*
G01X-2854503Y4447997D01*
G01X-2849067Y4459783D01*
G01X-2848458Y4461205D01*
G01X-2849067Y4462577D01*
G01X-2854503Y4474362D01*
G01X-2858160D01*
G01X-2852115Y4461205D01*
G01X-2861259Y4441241D01*
G01X-2841295Y4450436D01*
G01X-2821381Y4441241D01*
G01X-2830525Y4461205D01*
G01X-2821381Y4481119D01*
G01X-2841295Y4471975D01*
G37*
G36*
G01X-2861259Y4281119D02*
G01X-2858160Y4274363D01*
G01X-2854503D01*
G01X-2842717Y4268927D01*
G01X-2841295Y4268318D01*
G01X-2839923Y4268927D01*
G01X-2828138Y4274363D01*
G01X-2833573Y4262577D01*
G01X-2834183Y4261206D01*
G01X-2833573Y4259783D01*
G01X-2828138Y4247998D01*
G01X-2839923Y4253433D01*
G01X-2841295Y4254094D01*
G01X-2842717Y4253433D01*
G01X-2854503Y4247998D01*
G01X-2849067Y4259783D01*
G01X-2848458Y4261206D01*
G01X-2849067Y4262577D01*
G01X-2854503Y4274363D01*
G01X-2858160D01*
G01X-2852115Y4261206D01*
G01X-2861259Y4241241D01*
G01X-2841295Y4250436D01*
G01X-2821381Y4241241D01*
G01X-2830525Y4261206D01*
G01X-2821381Y4281119D01*
G01X-2841295Y4271975D01*
G37*
G36*
G01X-2861259Y4031132D02*
G01X-2858160Y4024376D01*
G01X-2854503D01*
G01X-2842717Y4018940D01*
G01X-2841295Y4018331D01*
G01X-2839923Y4018940D01*
G01X-2828138Y4024376D01*
G01X-2833573Y4012590D01*
G01X-2834183Y4011219D01*
G01X-2833573Y4009796D01*
G01X-2828138Y3998011D01*
G01X-2839923Y4003446D01*
G01X-2841295Y4004056D01*
G01X-2842717Y4003446D01*
G01X-2854503Y3998011D01*
G01X-2849067Y4009796D01*
G01X-2848458Y4011219D01*
G01X-2849067Y4012590D01*
G01X-2854503Y4024376D01*
G01X-2858160D01*
G01X-2852115Y4011219D01*
G01X-2861259Y3991254D01*
G01X-2841295Y4000398D01*
G01X-2821381Y3991254D01*
G01X-2830525Y4011219D01*
G01X-2821381Y4031132D01*
G01X-2841295Y4021988D01*
G37*
G36*
G01X-2209038Y4219956D02*
G01X-2209038Y4209085D01*
G01X-2219960D01*
G01Y4194251D01*
G01X-2216607D01*
G01Y4205732D01*
G01X-2205736D01*
G01Y4216603D01*
G01X-2194255D01*
G01Y4205732D01*
G01X-2183384D01*
G01Y4194251D01*
G01X-2194255D01*
G01Y4183380D01*
G01X-2205736D01*
G01Y4194251D01*
G01X-2216607D01*
G01X-2219960D01*
G01Y4190949D01*
G01X-2209038D01*
G01Y4180078D01*
G01X-2190953D01*
G01Y4190949D01*
G01X-2180082D01*
G01Y4209085D01*
G01X-2190953D01*
G01Y4219956D01*
G37*
G36*
G01X-2018640Y4316781D02*
G01X-2018640Y4305910D01*
G01X-2029562D01*
G01Y4291127D01*
G01X-2026209D01*
G01Y4302608D01*
G01X-2015338D01*
G01Y4313479D01*
G01X-2003857D01*
G01Y4302608D01*
G01X-1992986D01*
G01Y4291127D01*
G01X-2003857D01*
G01Y4280205D01*
G01X-2015338D01*
G01Y4291127D01*
G01X-2026209D01*
G01X-2029562D01*
G01Y4287774D01*
G01X-2018640D01*
G01Y4276903D01*
G01X-2000555D01*
G01Y4287774D01*
G01X-1989684D01*
G01Y4305910D01*
G01X-2000555D01*
G01Y4316781D01*
G37*
G36*
G01X-1945792Y4316781D02*
G01X-1945792Y4305910D01*
G01X-1956664D01*
G01Y4291127D01*
G01X-1953362D01*
G01Y4302608D01*
G01X-1942490D01*
G01Y4313479D01*
G01X-1931010D01*
G01Y4302608D01*
G01X-1920138D01*
G01Y4291127D01*
G01X-1931010D01*
G01Y4280205D01*
G01X-1942490D01*
G01Y4291127D01*
G01X-1953362D01*
G01X-1956664D01*
G01Y4287774D01*
G01X-1945792D01*
G01Y4276903D01*
G01X-1927657D01*
G01Y4287774D01*
G01X-1916786D01*
G01Y4305910D01*
G01X-1927657D01*
G01Y4316781D01*
G37*
G36*
G01X-2018640Y4243680D02*
G01X-2018640Y4232808D01*
G01X-2029562D01*
G01Y4218026D01*
G01X-2026209D01*
G01Y4229506D01*
G01X-2015338D01*
G01Y4240378D01*
G01X-2003857D01*
G01Y4229506D01*
G01X-1992986D01*
G01Y4218026D01*
G01X-2003857D01*
G01Y4207154D01*
G01X-2015338D01*
G01Y4218026D01*
G01X-2026209D01*
G01X-2029562D01*
G01Y4214673D01*
G01X-2018640D01*
G01Y4203802D01*
G01X-2000555D01*
G01Y4214673D01*
G01X-1989684D01*
G01Y4232808D01*
G01X-2000555D01*
G01Y4243680D01*
G37*
G36*
G01X-2205228Y4125620D02*
G01X-2205228Y4114698D01*
G01X-2216099D01*
G01Y4099916D01*
G01X-2212797D01*
G01Y4111396D01*
G01X-2201875D01*
G01Y4122268D01*
G01X-2190445D01*
G01Y4111396D01*
G01X-2179523D01*
G01Y4099916D01*
G01X-2190445D01*
G01Y4089044D01*
G01X-2201875D01*
G01Y4099916D01*
G01X-2212797D01*
G01X-2216099D01*
G01Y4096614D01*
G01X-2205228D01*
G01Y4085742D01*
G01X-2187092D01*
G01Y4096614D01*
G01X-2176221D01*
G01Y4114698D01*
G01X-2187092D01*
G01Y4125620D01*
G37*
G36*
G01X-933602Y4313682D02*
G01X-933602Y4302760D01*
G01X-944474D01*
G01Y4287977D01*
G01X-941172D01*
G01Y4299458D01*
G01X-930300D01*
G01Y4310329D01*
G01X-918820D01*
G01Y4299458D01*
G01X-907948D01*
G01Y4287977D01*
G01X-918820D01*
G01Y4277106D01*
G01X-930300D01*
G01Y4287977D01*
G01X-941172D01*
G01X-944474D01*
G01Y4284675D01*
G01X-933602D01*
G01Y4273804D01*
G01X-915518D01*
G01Y4284675D01*
G01X-904596D01*
G01Y4302760D01*
G01X-915518D01*
G01Y4313682D01*
G37*
G36*
G01X-1113942Y4313682D02*
G01X-1113942Y4302760D01*
G01X-1124864D01*
G01Y4287977D01*
G01X-1121512D01*
G01Y4299458D01*
G01X-1110640D01*
G01Y4310329D01*
G01X-1099160D01*
G01Y4299458D01*
G01X-1088288D01*
G01Y4287977D01*
G01X-1099160D01*
G01Y4277106D01*
G01X-1110640D01*
G01Y4287977D01*
G01X-1121512D01*
G01X-1124864D01*
G01Y4284675D01*
G01X-1113942D01*
G01Y4273804D01*
G01X-1095858D01*
G01Y4284675D01*
G01X-1084936D01*
G01Y4302760D01*
G01X-1095858D01*
G01Y4313682D01*
G37*
G36*
G01X-1343660Y4685894D02*
G01X-1343660Y4675022D01*
G01X-1354582D01*
G01Y4660240D01*
G01X-1351229D01*
G01Y4671720D01*
G01X-1340358D01*
G01Y4682592D01*
G01X-1328877D01*
G01Y4671720D01*
G01X-1318006D01*
G01Y4660240D01*
G01X-1328877D01*
G01Y4649368D01*
G01X-1340358D01*
G01Y4660240D01*
G01X-1351229D01*
G01X-1354582D01*
G01Y4656938D01*
G01X-1343660D01*
G01Y4646016D01*
G01X-1325575D01*
G01Y4656938D01*
G01X-1314704D01*
G01Y4675022D01*
G01X-1325575D01*
G01Y4685894D01*
G37*
G36*
G01X-1343660Y4866284D02*
G01X-1343660Y4855362D01*
G01X-1354582D01*
G01Y4840580D01*
G01X-1351229D01*
G01Y4852060D01*
G01X-1340358D01*
G01Y4862932D01*
G01X-1328877D01*
G01Y4852060D01*
G01X-1318006D01*
G01Y4840580D01*
G01X-1328877D01*
G01Y4829708D01*
G01X-1340358D01*
G01Y4840580D01*
G01X-1351229D01*
G01X-1354582D01*
G01Y4837278D01*
G01X-1343660D01*
G01Y4826406D01*
G01X-1325575D01*
G01Y4837278D01*
G01X-1314704D01*
G01Y4855362D01*
G01X-1325575D01*
G01Y4866284D01*
G37*
G36*
G01X-1326744Y3911194D02*
G01X-1326744Y3900322D01*
G01X-1337615D01*
G01Y3885540D01*
G01X-1334262D01*
G01Y3897020D01*
G01X-1323391D01*
G01Y3907892D01*
G01X-1311910D01*
G01Y3897020D01*
G01X-1301039D01*
G01Y3885540D01*
G01X-1311910D01*
G01Y3874668D01*
G01X-1323391D01*
G01Y3885540D01*
G01X-1334262D01*
G01X-1337615D01*
G01Y3882238D01*
G01X-1326744D01*
G01Y3871316D01*
G01X-1308608D01*
G01Y3882238D01*
G01X-1297737D01*
G01Y3900322D01*
G01X-1308608D01*
G01Y3911194D01*
G37*
G36*
G01X-1659077Y4519930D02*
G01X-1659077Y4509059D01*
G01X-1669948D01*
G01Y4494276D01*
G01X-1666596D01*
G01Y4505757D01*
G01X-1655724D01*
G01Y4516628D01*
G01X-1644244D01*
G01Y4505757D01*
G01X-1633372D01*
G01Y4494276D01*
G01X-1644244D01*
G01Y4483405D01*
G01X-1655724D01*
G01Y4494276D01*
G01X-1666596D01*
G01X-1669948D01*
G01Y4490923D01*
G01X-1659077D01*
G01Y4480052D01*
G01X-1640942D01*
G01Y4490923D01*
G01X-1630070D01*
G01Y4509059D01*
G01X-1640942D01*
G01Y4519930D01*
G37*
G36*
G01X-1659077Y4919929D02*
G01X-1659077Y4909058D01*
G01X-1669948D01*
G01Y4894275D01*
G01X-1666596D01*
G01Y4905756D01*
G01X-1655724D01*
G01Y4916627D01*
G01X-1644244D01*
G01Y4905756D01*
G01X-1633372D01*
G01Y4894275D01*
G01X-1644244D01*
G01Y4883404D01*
G01X-1655724D01*
G01Y4894275D01*
G01X-1666596D01*
G01X-1669948D01*
G01Y4890922D01*
G01X-1659077D01*
G01Y4880051D01*
G01X-1640942D01*
G01Y4890922D01*
G01X-1630070D01*
G01Y4909058D01*
G01X-1640942D01*
G01Y4919929D01*
G37*
G36*
G01X-2209038Y4660087D02*
G01X-2209038Y4649216D01*
G01X-2219960D01*
G01Y4634433D01*
G01X-2216607D01*
G01Y4645914D01*
G01X-2205736D01*
G01Y4656785D01*
G01X-2194255D01*
G01Y4645914D01*
G01X-2183384D01*
G01Y4634433D01*
G01X-2194255D01*
G01Y4623562D01*
G01X-2205736D01*
G01Y4634433D01*
G01X-2216607D01*
G01X-2219960D01*
G01Y4631080D01*
G01X-2209038D01*
G01Y4620209D01*
G01X-2190953D01*
G01Y4631131D01*
G01X-2180082D01*
G01Y4649216D01*
G01X-2190953D01*
G01Y4660087D01*
G37*
G36*
G01X-1649070Y3909924D02*
G01X-1649070Y3899052D01*
G01X-1659941D01*
G01Y3884270D01*
G01X-1656639D01*
G01Y3895750D01*
G01X-1645717D01*
G01Y3906622D01*
G01X-1634287D01*
G01Y3895750D01*
G01X-1623365D01*
G01Y3884270D01*
G01X-1634287D01*
G01Y3873398D01*
G01X-1645717D01*
G01Y3884270D01*
G01X-1656639D01*
G01X-1659941D01*
G01Y3880917D01*
G01X-1649070D01*
G01Y3870046D01*
G01X-1630934D01*
G01Y3880917D01*
G01X-1620063D01*
G01Y3899052D01*
G01X-1630934D01*
G01Y3909924D01*
G37*
G36*
G01X-3209087Y4819955D02*
G01X-3209087Y4809084D01*
G01X-3219958D01*
G01Y4794250D01*
G01X-3216605D01*
G01Y4805731D01*
G01X-3205734D01*
G01Y4816602D01*
G01X-3194253D01*
G01Y4805731D01*
G01X-3183382D01*
G01Y4794250D01*
G01X-3194253D01*
G01Y4783379D01*
G01X-3205734D01*
G01Y4794250D01*
G01X-3216605D01*
G01X-3219958D01*
G01Y4790948D01*
G01X-3209087D01*
G01Y4780077D01*
G01X-3190951D01*
G01Y4790948D01*
G01X-3180080D01*
G01Y4809084D01*
G01X-3190951D01*
G01Y4819955D01*
G37*
G36*
G01X-2609037Y4219956D02*
G01X-2609037Y4209085D01*
G01X-2619959D01*
G01Y4194251D01*
G01X-2616606D01*
G01Y4205732D01*
G01X-2605735D01*
G01Y4216603D01*
G01X-2594254D01*
G01Y4205732D01*
G01X-2583383D01*
G01Y4194251D01*
G01X-2594254D01*
G01Y4183380D01*
G01X-2605735D01*
G01Y4194251D01*
G01X-2616606D01*
G01X-2619959D01*
G01Y4190949D01*
G01X-2609037D01*
G01Y4180078D01*
G01X-2590952D01*
G01Y4190949D01*
G01X-2580081D01*
G01Y4209085D01*
G01X-2590952D01*
G01Y4219956D01*
G37*
G36*
G01X-2409038Y4219956D02*
G01X-2409038Y4209085D01*
G01X-2419960D01*
G01Y4194251D01*
G01X-2416607D01*
G01Y4205732D01*
G01X-2405736D01*
G01Y4216603D01*
G01X-2394255D01*
G01Y4205732D01*
G01X-2383384D01*
G01Y4194251D01*
G01X-2394255D01*
G01Y4183380D01*
G01X-2405736D01*
G01Y4194251D01*
G01X-2416607D01*
G01X-2419960D01*
G01Y4190949D01*
G01X-2409038D01*
G01Y4180078D01*
G01X-2390953D01*
G01Y4190949D01*
G01X-2380082D01*
G01Y4209085D01*
G01X-2390953D01*
G01Y4219956D01*
G37*
G36*
G01X-2609037Y4619955D02*
G01X-2609037Y4609084D01*
G01X-2619959D01*
G01Y4594250D01*
G01X-2616606D01*
G01Y4605731D01*
G01X-2605735D01*
G01Y4616602D01*
G01X-2594254D01*
G01Y4605731D01*
G01X-2583383D01*
G01Y4594250D01*
G01X-2594254D01*
G01Y4583379D01*
G01X-2605735D01*
G01Y4594250D01*
G01X-2616606D01*
G01X-2619959D01*
G01Y4590948D01*
G01X-2609037D01*
G01Y4580077D01*
G01X-2590952D01*
G01Y4590948D01*
G01X-2580081D01*
G01Y4609084D01*
G01X-2590952D01*
G01Y4619955D01*
G37*
G36*
G01X-2409038Y4619955D02*
G01X-2409038Y4609084D01*
G01X-2419960D01*
G01Y4594250D01*
G01X-2416607D01*
G01Y4605731D01*
G01X-2405736D01*
G01Y4616602D01*
G01X-2394255D01*
G01Y4605731D01*
G01X-2383384D01*
G01Y4594250D01*
G01X-2394255D01*
G01Y4583379D01*
G01X-2405736D01*
G01Y4594250D01*
G01X-2416607D01*
G01X-2419960D01*
G01Y4590948D01*
G01X-2409038D01*
G01Y4580077D01*
G01X-2390953D01*
G01Y4590948D01*
G01X-2380082D01*
G01Y4609084D01*
G01X-2390953D01*
G01Y4619955D01*
G37*
G36*
G01X-2009038Y4819955D02*
G01X-2009038Y4809084D01*
G01X-2019960D01*
G01Y4794250D01*
G01X-2016608D01*
G01Y4805731D01*
G01X-2005736D01*
G01Y4816602D01*
G01X-1994256D01*
G01Y4805731D01*
G01X-1983384D01*
G01Y4794250D01*
G01X-1994256D01*
G01Y4783379D01*
G01X-2005736D01*
G01Y4794250D01*
G01X-2016608D01*
G01X-2019960D01*
G01Y4790948D01*
G01X-2009038D01*
G01Y4780077D01*
G01X-1990954D01*
G01Y4790948D01*
G01X-1980082D01*
G01Y4809084D01*
G01X-1990954D01*
G01Y4819955D01*
G37*
G36*
G01X-1109066Y4819955D02*
G01X-1109066Y4809084D01*
G01X-1119937D01*
G01Y4794250D01*
G01X-1116635D01*
G01Y4805731D01*
G01X-1105764D01*
G01Y4816602D01*
G01X-1094283D01*
G01Y4805731D01*
G01X-1083361D01*
G01Y4794250D01*
G01X-1094283D01*
G01Y4783379D01*
G01X-1105764D01*
G01Y4794250D01*
G01X-1116635D01*
G01X-1119937D01*
G01Y4790948D01*
G01X-1109066D01*
G01Y4780077D01*
G01X-1090930D01*
G01Y4790948D01*
G01X-1080059D01*
G01Y4809084D01*
G01X-1090930D01*
G01Y4819955D01*
G37*
G36*
G01X-709066Y4019956D02*
G01X-709066Y4009085D01*
G01X-719938D01*
G01Y3994252D01*
G01X-716636D01*
G01Y4005732D01*
G01X-705764D01*
G01Y4016604D01*
G01X-694284D01*
G01Y4005732D01*
G01X-683362D01*
G01Y3994252D01*
G01X-694284D01*
G01Y3983380D01*
G01X-705764D01*
G01Y3994252D01*
G01X-716636D01*
G01X-719938D01*
G01Y3990950D01*
G01X-709066D01*
G01Y3980078D01*
G01X-690931D01*
G01Y3990950D01*
G01X-680060D01*
G01Y4009085D01*
G01X-690931D01*
G01Y4019956D01*
G37*
G36*
G01X-709066Y3819957D02*
G01X-709066Y3809086D01*
G01X-719938D01*
G01Y3794252D01*
G01X-716636D01*
G01Y3805733D01*
G01X-705764D01*
G01Y3816604D01*
G01X-694284D01*
G01Y3805733D01*
G01X-683362D01*
G01Y3794252D01*
G01X-694284D01*
G01Y3783381D01*
G01X-705764D01*
G01Y3794252D01*
G01X-716636D01*
G01X-719938D01*
G01Y3790950D01*
G01X-709066D01*
G01Y3780079D01*
G01X-690931D01*
G01Y3790950D01*
G01X-680060D01*
G01Y3809086D01*
G01X-690931D01*
G01Y3819957D01*
G37*
G36*
G01X-1109066Y4019956D02*
G01X-1109066Y4009085D01*
G01X-1119937D01*
G01Y3994252D01*
G01X-1116635D01*
G01Y4005732D01*
G01X-1105764D01*
G01Y4016604D01*
G01X-1094283D01*
G01Y4005732D01*
G01X-1083361D01*
G01Y3994252D01*
G01X-1094283D01*
G01Y3983380D01*
G01X-1105764D01*
G01Y3994252D01*
G01X-1116635D01*
G01X-1119937D01*
G01Y3990950D01*
G01X-1109066D01*
G01Y3980078D01*
G01X-1090930D01*
G01Y3990950D01*
G01X-1080059D01*
G01Y4009085D01*
G01X-1090930D01*
G01Y4019956D01*
G37*
G36*
G01X-1109066Y3819957D02*
G01X-1109066Y3809086D01*
G01X-1119937D01*
G01Y3794252D01*
G01X-1116635D01*
G01Y3805733D01*
G01X-1105764D01*
G01Y3816604D01*
G01X-1094283D01*
G01Y3805733D01*
G01X-1083361D01*
G01Y3794252D01*
G01X-1094283D01*
G01Y3783381D01*
G01X-1105764D01*
G01Y3794252D01*
G01X-1116635D01*
G01X-1119937D01*
G01Y3790950D01*
G01X-1109066D01*
G01Y3780079D01*
G01X-1090930D01*
G01Y3790950D01*
G01X-1080059D01*
G01Y3809086D01*
G01X-1090930D01*
G01Y3819957D01*
G37*
G36*
G01X-2009038Y3819957D02*
G01X-2009038Y3809086D01*
G01X-2019960D01*
G01Y3794252D01*
G01X-2016608D01*
G01Y3805733D01*
G01X-2005736D01*
G01Y3816604D01*
G01X-1994256D01*
G01Y3805733D01*
G01X-1983384D01*
G01Y3794252D01*
G01X-1994256D01*
G01Y3783381D01*
G01X-2005736D01*
G01Y3794252D01*
G01X-2016608D01*
G01X-2019960D01*
G01Y3790950D01*
G01X-2009038D01*
G01Y3780079D01*
G01X-1990954D01*
G01Y3790950D01*
G01X-1980082D01*
G01Y3809086D01*
G01X-1990954D01*
G01Y3819957D01*
G37*
G36*
G01X-2009038Y4619955D02*
G01X-2009038Y4609084D01*
G01X-2019960D01*
G01Y4594250D01*
G01X-2016608D01*
G01Y4605731D01*
G01X-2005736D01*
G01Y4616602D01*
G01X-1994256D01*
G01Y4605731D01*
G01X-1983384D01*
G01Y4594250D01*
G01X-1994256D01*
G01Y4583379D01*
G01X-2005736D01*
G01Y4594250D01*
G01X-2016608D01*
G01X-2019960D01*
G01Y4590948D01*
G01X-2009038D01*
G01Y4580077D01*
G01X-1990954D01*
G01Y4590948D01*
G01X-1980082D01*
G01Y4609084D01*
G01X-1990954D01*
G01Y4619955D01*
G37*
G04 Image End*
G54D10*

M02*
