G04 Layer: TopLayer*
G04 EasyEDA Pro v2.1.64.d1969c9c.217bcf, 2024-08-09 12:31:45*
G04 Gerber Generator version 0.3*
G04 Scale: 100 percent, Rotated: No, Reflected: No*
G04 Dimensions in millimeters*
G04 Leading zeros omitted, absolute positions, 3 integers and 5 decimals*
%FSLAX35Y35*%
%MOMM*%
%ADD8191C,0.2032*%
%ADD10C,0.2*%
%ADD11C,0.8*%
%ADD12C,0.254*%
%ADD13C,0.15*%
%ADD14C,0.1*%
%ADD15C,0.155*%
%ADD16C,1.0006*%
%ADD17C,1.0*%
%ADD18C,1.7*%
%ADD19R,0.8X0.9*%
%ADD20R,0.9X0.8*%
%ADD21R,0.9X0.8*%
%ADD22R,1.25001X0.7*%
%ADD23R,0.80648X0.86401*%
%ADD24R,0.8X0.9*%
%ADD25R,0.80648X0.86401*%
%ADD26O,3.49999X1.0*%
%ADD27C,1.6*%
%ADD28C,0.5*%
%ADD29C,0.6*%
G75*


G04 Copper Start*
G36*
G01X-3263966Y3724534D02*
G01X-3263966Y4993706D01*
G01X-3219873D01*
G03X-3236733Y4946180I58554J-47526D01*
G03X-3161319Y4870766I75414J0D01*
G01X-2921320D01*
G03X-2845906Y4946180I0J75414D01*
G03X-2862766Y4993706I-75414J0D01*
G01X-374794D01*
G01Y4794534D01*
G01X-604354D01*
G03X-634768Y4764120I0J-30414D01*
G01Y3954120D01*
G03X-604354Y3923706I30414J0D01*
G01X-374768D01*
G01Y3724534D01*
G01X-2866366D01*
G03X-2845906Y3776180I-54954J51646D01*
G03X-2921320Y3851594I-75414J0D01*
G01X-3161319D01*
G03X-3236733Y3776180I0J-75414D01*
G03X-3216274Y3724534I75414J0D01*
G01X-3263966D01*
G37*
%LPC*%
G36*
G01X-2666374Y3829538D02*
G03X-2645960Y3809124I20414J0D01*
G01X-2555960D01*
G03X-2535546Y3829538I0J20414D01*
G01Y3899499D01*
G01X-2294407D01*
G03X-2279075Y3903647I0J30414D01*
G01Y3880664D01*
G03X-2258661Y3860250I20414J0D01*
G01X-2133660D01*
G03X-2113246Y3880664I0J20414D01*
G01Y3950664D01*
G03X-2133660Y3971078I-20414J0D01*
G01X-2258661D01*
G03X-2263993Y3970369I0J-20414D01*
G01Y3990931D01*
G01X-2073492D01*
G03X-2075014Y3983198I18893J-7733D01*
G01Y3903198D01*
G03X-2054600Y3882784I20414J0D01*
G01X-1964600D01*
G03X-1944186Y3903198I0J20414D01*
G01Y3983198D01*
G03X-1948131Y3995260I-20414J0D01*
G03X-1933356Y4021345I-15639J26085D01*
G01Y4163281D01*
G03X-1939186Y4181188I-30414J0D01*
G01Y4220703D01*
G03X-1920002Y4213888I19185J23600D01*
G01X-1874893Y4213886D01*
G03X-1885014Y4196258I10294J-17629D01*
G01Y4116258D01*
G03X-1864600Y4095844I20414J0D01*
G01X-1774600D01*
G03X-1754186Y4116258I0J20414D01*
G01Y4196258D01*
G03X-1764297Y4213881I-20414J0D01*
G01X-1694569Y4213877D01*
G03X-1704674Y4196258I10309J-17620D01*
G01Y4116258D01*
G03X-1684260Y4095844I20414J0D01*
G01X-1594260D01*
G03X-1591332Y4096055I0J20414D01*
G01X-1537576D01*
G01Y4061594D01*
G01Y4061460D01*
G01Y3952148D01*
G03X-1543234Y3934480I24756J-17667D01*
G01Y3929445D01*
G01X-1601079D01*
G03X-1640001Y3945416I-38922J-39443D01*
G03X-1695415Y3890002I0J-55414D01*
G03X-1640001Y3834588I55414J0D01*
G03X-1598646Y3853117I0J55414D01*
G01X-1543234D01*
G01Y3848080D01*
G03X-1512820Y3817666I30414J0D01*
G01X-1432173D01*
G03X-1401759Y3848080I0J30414D01*
G01Y3870528D01*
G03X-1396748Y3896614I-65404J26086D01*
G01Y4061460D01*
G01X-1396749Y4061594D01*
G01Y4106460D01*
G03X-1426748Y4136871I-30414J0D01*
G01Y4137118D01*
G01X-1353513Y4210353D01*
G03X-1345898Y4220947I-28577J28577D01*
G03X-1342085Y4220766I3813J40234D01*
G03X-1322083Y4226063I0J40414D01*
G03X-1302080Y4220766I20003J35117D01*
G03X-1261668Y4260771I0J40414D01*
G01X-1180314D01*
G01Y4253718D01*
G03X-1149900Y4223304I30414J0D01*
G01X-1105034D01*
G01X-1104900D01*
G01X-924560D01*
G01X-924426D01*
G01X-879560D01*
G03X-849146Y4253718I0J30414D01*
G01Y4333718D01*
G03X-879560Y4364131I-30414J0D01*
G01X-924426D01*
G01X-924560Y4364132D01*
G01X-1104900D01*
G01X-1105034Y4364131D01*
G01X-1149900D01*
G03X-1179275Y4341599I0J-30414D01*
G01X-1271669D01*
G03X-1273777Y4352322I-30411J-409D01*
G03X-1261666Y4381170I-28304J28848D01*
G03X-1266963Y4401172I-40414J0D01*
G03X-1261666Y4421175I-35117J20003D01*
G03X-1265652Y4438675I-40414J0D01*
G01X-1114501Y4589826D01*
G01X-1053553D01*
G03X-1023139Y4620240I0J30414D01*
G01Y4706640D01*
G03X-1053553Y4737054I-30414J0D01*
G01X-1134200D01*
G03X-1164614Y4706640I0J-30414D01*
G01Y4654021D01*
G01X-1301671Y4516963D01*
G01Y4590566D01*
G01X-1294618D01*
G03X-1264204Y4620980I0J30414D01*
G01Y4665846D01*
G01Y4665980D01*
G01Y4846320D01*
G01Y4846454D01*
G01Y4891320D01*
G03X-1294618Y4921734I-30414J0D01*
G01X-1374618D01*
G03X-1405031Y4891320I0J-30414D01*
G01Y4846454D01*
G01X-1405032Y4846320D01*
G01Y4665980D01*
G01X-1405031Y4665846D01*
G01Y4620980D01*
G03X-1382499Y4591605I30414J0D01*
G01Y4501592D01*
G01X-1383906Y4501553D01*
G01Y4550003D01*
G03X-1422070Y4588167I-38164J0D01*
G01X-1554193D01*
G01X-1611837Y4645810D01*
G01Y4859825D01*
G03X-1594587Y4900003I-38164J40177D01*
G03X-1650001Y4955417I-55414J0D01*
G03X-1705415Y4900003I0J-55414D01*
G03X-1688165Y4859825I55414J0D01*
G01Y4630002D01*
G03X-1676987Y4603016I38164J0D01*
G01X-1621489Y4547518D01*
G03X-1650001Y4555416I-28512J-47516D01*
G03X-1705415Y4500002I0J-55414D01*
G03X-1700528Y4477249I55414J0D01*
G01X-2693092D01*
G03X-2720078Y4466071I0J-38164D01*
G01X-2731076Y4455073D01*
G03X-2730906Y4461193I-110244J6119D01*
G03X-2841320Y4571606I-110414J0D01*
G03X-2951734Y4461193I0J-110414D01*
G03X-2888131Y4361193I110414J0D01*
G03X-2951734Y4261193I46811J-100000D01*
G03X-2841320Y4150779I110414J0D01*
G03X-2730906Y4261193I0J110414D01*
G03X-2738035Y4300222I-110414J0D01*
G03X-2716545Y4311003I-5497J37766D01*
G01X-2662447Y4365101D01*
G01X-2026898D01*
G03X-2080014Y4296845I17298J-68256D01*
G01Y4193695D01*
G01X-2144946D01*
G03X-2144586Y4200000I-55054J6305D01*
G03X-2200000Y4255414I-55414J0D01*
G03X-2255414Y4200000I0J-55414D01*
G03X-2255054Y4193695I55414J0D01*
G01X-2277252D01*
G03X-2307666Y4163281I0J-30414D01*
G01Y4122114D01*
G01X-2952010D01*
G03X-2950906Y4136200I-89310J14086D01*
G03X-3041320Y4226613I-90414J0D01*
G03X-3131734Y4136200I0J-90414D01*
G03X-3041320Y4045786I90414J0D01*
G03X-2991544Y4060721I0J90414D01*
G01Y3929913D01*
G03X-2961130Y3899499I30414J0D01*
G01X-2666374D01*
G01Y3829538D01*
G37*
G36*
G01X-2615414Y4800000D02*
G03X-2500000Y4684586I115414J0D01*
G03X-2384586Y4800000I0J115414D01*
G03X-2500000Y4915414I-115414J0D01*
G03X-2615414Y4800000I0J-115414D01*
G37*
G36*
G01X-900000Y3784586D02*
G03X-784586Y3900000I0J115414D01*
G03X-900000Y4015414I-115414J0D01*
G03X-1015414Y3900000I0J-115414D01*
G03X-900000Y3784586I115414J0D01*
G37*
G36*
G01X-2941734Y4711179D02*
G03X-2841320Y4610765I100414J0D01*
G03X-2740906Y4711179I0J100414D01*
G03X-2841320Y4811593I-100414J0D01*
G03X-2941734Y4711179I0J-100414D01*
G37*
G36*
G01X-3041320Y4495772D02*
G03X-2950906Y4586186I0J90414D01*
G03X-3041320Y4676600I-90414J0D01*
G03X-3131734Y4586186I0J-90414D01*
G03X-3041320Y4495772I90414J0D01*
G37*
G36*
G01X-475130Y3744166D02*
G03X-394716Y3824580I0J80414D01*
G03X-475130Y3904994I-80414J0D01*
G03X-555544Y3824580I0J-80414D01*
G03X-475130Y3744166I80414J0D01*
G37*
G36*
G01X-555394Y4894580D02*
G03X-474980Y4814166I80414J0D01*
G03X-394566Y4894580I0J80414D01*
G03X-474980Y4974994I-80414J0D01*
G03X-555394Y4894580I0J-80414D01*
G37*
G36*
G01X-1281500Y3817666D02*
G03X-1251086Y3848080I0J30414D01*
G01Y3934480D01*
G03X-1281500Y3964894I-30414J0D01*
G01X-1362147D01*
G03X-1392561Y3934480I0J-30414D01*
G01Y3848080D01*
G03X-1362147Y3817666I30414J0D01*
G01X-1281500D01*
G37*
G36*
G01X-1434622Y4780906D02*
G03X-1414208Y4801320I0J20414D01*
G01Y4891320D01*
G03X-1434622Y4911734I-20414J0D01*
G01X-1514622D01*
G03X-1535036Y4891320I0J-20414D01*
G01Y4801320D01*
G03X-1514622Y4780906I20414J0D01*
G01X-1434622D01*
G37*
G36*
G01X-1535036Y4620980D02*
G03X-1514622Y4600566I20414J0D01*
G01X-1434622D01*
G03X-1414208Y4620980I0J20414D01*
G01Y4710980D01*
G03X-1434622Y4731394I-20414J0D01*
G01X-1514622D01*
G03X-1535036Y4710980I0J-20414D01*
G01Y4620980D01*
G37*
G36*
G01X-879560Y4373309D02*
G03X-859146Y4393722I0J20414D01*
G01Y4473722D01*
G03X-879560Y4494136I-20414J0D01*
G01X-969560D01*
G03X-989974Y4473722I0J-20414D01*
G01Y4393722D01*
G03X-969560Y4373309I20414J0D01*
G01X-879560D01*
G37*
G36*
G01X-1387572Y4016460D02*
G03X-1367158Y3996046I20414J0D01*
G01X-1287158D01*
G03X-1266744Y4016460I0J20414D01*
G01Y4106460D01*
G03X-1287158Y4126874I-20414J0D01*
G01X-1367158D01*
G03X-1387572Y4106460I0J-20414D01*
G01Y4016460D01*
G37*
G36*
G01X-1170314Y4393722D02*
G03X-1149900Y4373309I20414J0D01*
G01X-1059900D01*
G03X-1039486Y4393722I0J20414D01*
G01Y4473722D01*
G03X-1059900Y4494136I-20414J0D01*
G01X-1149900D01*
G03X-1170314Y4473722I0J-20414D01*
G01Y4393722D01*
G37*
G36*
G01X-902880Y4599826D02*
G03X-882466Y4620240I0J20414D01*
G01Y4706640D01*
G03X-902880Y4727054I-20414J0D01*
G01X-983527D01*
G03X-1003941Y4706640I0J-20414D01*
G01Y4620240D01*
G03X-983527Y4599826I20414J0D01*
G01X-902880D01*
G37*
G36*
G01X-2200000Y4584756D02*
G03X-2144586Y4640170I0J55414D01*
G03X-2200000Y4695584I-55414J0D01*
G03X-2255414Y4640170I0J-55414D01*
G03X-2200000Y4584756I55414J0D01*
G37*
%LPD*%
G36*
G01X-2950970Y3940073D02*
G01X-2950970Y4081540D01*
G01X-2912962D01*
G03X-2941734Y4011181I71642J-70359D01*
G03X-2912219Y3940073I100414J0D01*
G01X-2950970D01*
G37*
G36*
G01X-2770421Y3940073D02*
G03X-2740906Y4011181I-70899J71108D01*
G03X-2769679Y4081540I-100414J0D01*
G01X-2304567D01*
G01Y3940073D01*
G01X-2770421D01*
G37*
%LPC*%
G36*
G01X-2333659Y3955246D02*
G03X-2313245Y3975660I0J20414D01*
G01Y4045660D01*
G03X-2333659Y4066074I-20414J0D01*
G01X-2458660D01*
G03X-2479074Y4045660I0J-20414D01*
G01Y3975660D01*
G03X-2458660Y3955246I20414J0D01*
G01X-2333659D01*
G37*
G36*
G01X-2666374Y3969542D02*
G03X-2645960Y3949129I20414J0D01*
G01X-2555960D01*
G03X-2535546Y3969542I0J20414D01*
G01Y4049542D01*
G03X-2555960Y4069956I-20414J0D01*
G01X-2645960D01*
G03X-2666374Y4049542I0J-20414D01*
G01Y3969542D01*
G37*
%LPD*%
G36*
G01X-2075014Y4043202D02*
G03X-2071330Y4031505I20414J0D01*
G01X-2263993D01*
G01Y4050951D01*
G03X-2258661Y4050242I5332J19705D01*
G01X-2133660D01*
G03X-2113246Y4070656I0J20414D01*
G01Y4140656D01*
G03X-2117493Y4153121I-20414J0D01*
G01X-1973930D01*
G01Y4143616D01*
G01X-2054600D01*
G03X-2075014Y4123202I0J-20414D01*
G01Y4043202D01*
G37*
G36*
G01X-2117493Y3868199D02*
G03X-2113246Y3880664I-16166J12465D01*
G01Y3950664D01*
G03X-2133660Y3971078I-20414J0D01*
G01X-2258661D01*
G03X-2263993Y3970369I0J-20414D01*
G01Y3987805D01*
G01X-2074487D01*
G03X-2075014Y3983198I19887J-4608D01*
G01Y3903198D01*
G03X-2054600Y3882784I20414J0D01*
G01X-1974311D01*
G01Y3868199D01*
G01X-2117493D01*
G37*
G36*
G01X-1910773Y4095869D02*
G01X-1910773Y4205325D01*
G01X-1882889D01*
G03X-1885014Y4196258I18289J-9068D01*
G01Y4116258D01*
G03X-1865618Y4095869I20414J0D01*
G01X-1910773D01*
G37*
G36*
G01X-1885014Y4256263D02*
G01X-1884934Y4254461D01*
G01X-1909841Y4254462D01*
G01Y4355102D01*
G01X-1872462D01*
G03X-1885014Y4336262I7862J-18839D01*
G01Y4256263D01*
G37*
G36*
G01X-1773582Y4095869D02*
G03X-1754186Y4116258I-1018J20389D01*
G01Y4196258D01*
G03X-1756310Y4205325I-20414J0D01*
G01X-1702549D01*
G03X-1704674Y4196258I18289J-9068D01*
G01Y4116258D01*
G03X-1685278Y4095869I20414J0D01*
G01X-1773582D01*
G37*
G36*
G01X-1704674Y4256263D02*
G01X-1704593Y4254452D01*
G01X-1754266Y4254454D01*
G01X-1754186Y4256263D01*
G01Y4336262D01*
G03X-1766738Y4355102I-20414J0D01*
G01X-1692122D01*
G03X-1704674Y4336262I7862J-18839D01*
G01Y4256263D01*
G37*
G54D8191*
G01X-3263966Y3724534D02*
G01X-3263966Y4993706D01*
G01X-3219873D01*
G03X-3236733Y4946180I58554J-47526D01*
G03X-3161319Y4870766I75414J0D01*
G01X-2921320D01*
G03X-2845906Y4946180I0J75414D01*
G03X-2862766Y4993706I-75414J0D01*
G01X-374794D01*
G01Y4794534D01*
G01X-604354D01*
G03X-634768Y4764120I0J-30414D01*
G01Y3954120D01*
G03X-604354Y3923706I30414J0D01*
G01X-374768D01*
G01Y3724534D01*
G01X-2866366D01*
G03X-2845906Y3776180I-54954J51646D01*
G03X-2921320Y3851594I-75414J0D01*
G01X-3161319D01*
G03X-3236733Y3776180I0J-75414D01*
G03X-3216274Y3724534I75414J0D01*
G01X-3263966D01*
G01X-2666374Y3829538D02*
G03X-2645960Y3809124I20414J0D01*
G01X-2555960D01*
G03X-2535546Y3829538I0J20414D01*
G01Y3899499D01*
G01X-2294407D01*
G03X-2279075Y3903647I0J30414D01*
G01Y3880664D01*
G03X-2258661Y3860250I20414J0D01*
G01X-2133660D01*
G03X-2113246Y3880664I0J20414D01*
G01Y3950664D01*
G03X-2133660Y3971078I-20414J0D01*
G01X-2258661D01*
G03X-2263993Y3970369I0J-20414D01*
G01Y3990931D01*
G01X-2073492D01*
G03X-2075014Y3983198I18893J-7733D01*
G01Y3903198D01*
G03X-2054600Y3882784I20414J0D01*
G01X-1964600D01*
G03X-1944186Y3903198I0J20414D01*
G01Y3983198D01*
G03X-1948131Y3995260I-20414J0D01*
G03X-1933356Y4021345I-15639J26085D01*
G01Y4163281D01*
G03X-1939186Y4181188I-30414J0D01*
G01Y4220703D01*
G03X-1920002Y4213888I19185J23600D01*
G01X-1874893Y4213886D01*
G03X-1885014Y4196258I10294J-17629D01*
G01Y4116258D01*
G03X-1864600Y4095844I20414J0D01*
G01X-1774600D01*
G03X-1754186Y4116258I0J20414D01*
G01Y4196258D01*
G03X-1764297Y4213881I-20414J0D01*
G01X-1694569Y4213877D01*
G03X-1704674Y4196258I10309J-17620D01*
G01Y4116258D01*
G03X-1684260Y4095844I20414J0D01*
G01X-1594260D01*
G03X-1591332Y4096055I0J20414D01*
G01X-1537576D01*
G01Y4061594D01*
G01Y4061460D01*
G01Y3952148D01*
G03X-1543234Y3934480I24756J-17667D01*
G01Y3929445D01*
G01X-1601079D01*
G03X-1640001Y3945416I-38922J-39443D01*
G03X-1695415Y3890002I0J-55414D01*
G03X-1640001Y3834588I55414J0D01*
G03X-1598646Y3853117I0J55414D01*
G01X-1543234D01*
G01Y3848080D01*
G03X-1512820Y3817666I30414J0D01*
G01X-1432173D01*
G03X-1401759Y3848080I0J30414D01*
G01Y3870528D01*
G03X-1396748Y3896614I-65404J26086D01*
G01Y4061460D01*
G01X-1396749Y4061594D01*
G01Y4106460D01*
G03X-1426748Y4136871I-30414J0D01*
G01Y4137118D01*
G01X-1353513Y4210353D01*
G03X-1345898Y4220947I-28577J28577D01*
G03X-1342085Y4220766I3813J40234D01*
G03X-1322083Y4226063I0J40414D01*
G03X-1302080Y4220766I20003J35117D01*
G03X-1261668Y4260771I0J40414D01*
G01X-1180314D01*
G01Y4253718D01*
G03X-1149900Y4223304I30414J0D01*
G01X-1105034D01*
G01X-1104900D01*
G01X-924560D01*
G01X-924426D01*
G01X-879560D01*
G03X-849146Y4253718I0J30414D01*
G01Y4333718D01*
G03X-879560Y4364131I-30414J0D01*
G01X-924426D01*
G01X-924560Y4364132D01*
G01X-1104900D01*
G01X-1105034Y4364131D01*
G01X-1149900D01*
G03X-1179275Y4341599I0J-30414D01*
G01X-1271669D01*
G03X-1273777Y4352322I-30411J-409D01*
G03X-1261666Y4381170I-28304J28848D01*
G03X-1266963Y4401172I-40414J0D01*
G03X-1261666Y4421175I-35117J20003D01*
G03X-1265652Y4438675I-40414J0D01*
G01X-1114501Y4589826D01*
G01X-1053553D01*
G03X-1023139Y4620240I0J30414D01*
G01Y4706640D01*
G03X-1053553Y4737054I-30414J0D01*
G01X-1134200D01*
G03X-1164614Y4706640I0J-30414D01*
G01Y4654021D01*
G01X-1301671Y4516963D01*
G01Y4590566D01*
G01X-1294618D01*
G03X-1264204Y4620980I0J30414D01*
G01Y4665846D01*
G01Y4665980D01*
G01Y4846320D01*
G01Y4846454D01*
G01Y4891320D01*
G03X-1294618Y4921734I-30414J0D01*
G01X-1374618D01*
G03X-1405031Y4891320I0J-30414D01*
G01Y4846454D01*
G01X-1405032Y4846320D01*
G01Y4665980D01*
G01X-1405031Y4665846D01*
G01Y4620980D01*
G03X-1382499Y4591605I30414J0D01*
G01Y4501592D01*
G01X-1383906Y4501553D01*
G01Y4550003D01*
G03X-1422070Y4588167I-38164J0D01*
G01X-1554193D01*
G01X-1611837Y4645810D01*
G01Y4859825D01*
G03X-1594587Y4900003I-38164J40177D01*
G03X-1650001Y4955417I-55414J0D01*
G03X-1705415Y4900003I0J-55414D01*
G03X-1688165Y4859825I55414J0D01*
G01Y4630002D01*
G03X-1676987Y4603016I38164J0D01*
G01X-1621489Y4547518D01*
G03X-1650001Y4555416I-28512J-47516D01*
G03X-1705415Y4500002I0J-55414D01*
G03X-1700528Y4477249I55414J0D01*
G01X-2693092D01*
G03X-2720078Y4466071I0J-38164D01*
G01X-2731076Y4455073D01*
G03X-2730906Y4461193I-110244J6119D01*
G03X-2841320Y4571606I-110414J0D01*
G03X-2951734Y4461193I0J-110414D01*
G03X-2888131Y4361193I110414J0D01*
G03X-2951734Y4261193I46811J-100000D01*
G03X-2841320Y4150779I110414J0D01*
G03X-2730906Y4261193I0J110414D01*
G03X-2738035Y4300222I-110414J0D01*
G03X-2716545Y4311003I-5497J37766D01*
G01X-2662447Y4365101D01*
G01X-2026898D01*
G03X-2080014Y4296845I17298J-68256D01*
G01Y4193695D01*
G01X-2144946D01*
G03X-2144586Y4200000I-55054J6305D01*
G03X-2200000Y4255414I-55414J0D01*
G03X-2255414Y4200000I0J-55414D01*
G03X-2255054Y4193695I55414J0D01*
G01X-2277252D01*
G03X-2307666Y4163281I0J-30414D01*
G01Y4122114D01*
G01X-2952010D01*
G03X-2950906Y4136200I-89310J14086D01*
G03X-3041320Y4226613I-90414J0D01*
G03X-3131734Y4136200I0J-90414D01*
G03X-3041320Y4045786I90414J0D01*
G03X-2991544Y4060721I0J90414D01*
G01Y3929913D01*
G03X-2961130Y3899499I30414J0D01*
G01X-2666374D01*
G01Y3829538D01*
G01X-2615414Y4800000D02*
G03X-2500000Y4684586I115414J0D01*
G03X-2384586Y4800000I0J115414D01*
G03X-2500000Y4915414I-115414J0D01*
G03X-2615414Y4800000I0J-115414D01*
G01X-900000Y3784586D02*
G03X-784586Y3900000I0J115414D01*
G03X-900000Y4015414I-115414J0D01*
G03X-1015414Y3900000I0J-115414D01*
G03X-900000Y3784586I115414J0D01*
G01X-2941734Y4711179D02*
G03X-2841320Y4610765I100414J0D01*
G03X-2740906Y4711179I0J100414D01*
G03X-2841320Y4811593I-100414J0D01*
G03X-2941734Y4711179I0J-100414D01*
G01X-3041320Y4495772D02*
G03X-2950906Y4586186I0J90414D01*
G03X-3041320Y4676600I-90414J0D01*
G03X-3131734Y4586186I0J-90414D01*
G03X-3041320Y4495772I90414J0D01*
G01X-475130Y3744166D02*
G03X-394716Y3824580I0J80414D01*
G03X-475130Y3904994I-80414J0D01*
G03X-555544Y3824580I0J-80414D01*
G03X-475130Y3744166I80414J0D01*
G01X-555394Y4894580D02*
G03X-474980Y4814166I80414J0D01*
G03X-394566Y4894580I0J80414D01*
G03X-474980Y4974994I-80414J0D01*
G03X-555394Y4894580I0J-80414D01*
G01X-1281500Y3817666D02*
G03X-1251086Y3848080I0J30414D01*
G01Y3934480D01*
G03X-1281500Y3964894I-30414J0D01*
G01X-1362147D01*
G03X-1392561Y3934480I0J-30414D01*
G01Y3848080D01*
G03X-1362147Y3817666I30414J0D01*
G01X-1281500D01*
G01X-1434622Y4780906D02*
G03X-1414208Y4801320I0J20414D01*
G01Y4891320D01*
G03X-1434622Y4911734I-20414J0D01*
G01X-1514622D01*
G03X-1535036Y4891320I0J-20414D01*
G01Y4801320D01*
G03X-1514622Y4780906I20414J0D01*
G01X-1434622D01*
G01X-1535036Y4620980D02*
G03X-1514622Y4600566I20414J0D01*
G01X-1434622D01*
G03X-1414208Y4620980I0J20414D01*
G01Y4710980D01*
G03X-1434622Y4731394I-20414J0D01*
G01X-1514622D01*
G03X-1535036Y4710980I0J-20414D01*
G01Y4620980D01*
G01X-879560Y4373309D02*
G03X-859146Y4393722I0J20414D01*
G01Y4473722D01*
G03X-879560Y4494136I-20414J0D01*
G01X-969560D01*
G03X-989974Y4473722I0J-20414D01*
G01Y4393722D01*
G03X-969560Y4373309I20414J0D01*
G01X-879560D01*
G01X-1387572Y4016460D02*
G03X-1367158Y3996046I20414J0D01*
G01X-1287158D01*
G03X-1266744Y4016460I0J20414D01*
G01Y4106460D01*
G03X-1287158Y4126874I-20414J0D01*
G01X-1367158D01*
G03X-1387572Y4106460I0J-20414D01*
G01Y4016460D01*
G01X-1170314Y4393722D02*
G03X-1149900Y4373309I20414J0D01*
G01X-1059900D01*
G03X-1039486Y4393722I0J20414D01*
G01Y4473722D01*
G03X-1059900Y4494136I-20414J0D01*
G01X-1149900D01*
G03X-1170314Y4473722I0J-20414D01*
G01Y4393722D01*
G01X-902880Y4599826D02*
G03X-882466Y4620240I0J20414D01*
G01Y4706640D01*
G03X-902880Y4727054I-20414J0D01*
G01X-983527D01*
G03X-1003941Y4706640I0J-20414D01*
G01Y4620240D01*
G03X-983527Y4599826I20414J0D01*
G01X-902880D01*
G01X-2200000Y4584756D02*
G03X-2144586Y4640170I0J55414D01*
G03X-2200000Y4695584I-55414J0D01*
G03X-2255414Y4640170I0J-55414D01*
G03X-2200000Y4584756I55414J0D01*
G01X-2950970Y3940073D02*
G01X-2950970Y4081540D01*
G01X-2912962D01*
G03X-2941734Y4011181I71642J-70359D01*
G03X-2912219Y3940073I100414J0D01*
G01X-2950970D01*
G01X-2770421Y3940073D02*
G03X-2740906Y4011181I-70899J71108D01*
G03X-2769679Y4081540I-100414J0D01*
G01X-2304567D01*
G01Y3940073D01*
G01X-2770421D01*
G01X-2333659Y3955246D02*
G03X-2313245Y3975660I0J20414D01*
G01Y4045660D01*
G03X-2333659Y4066074I-20414J0D01*
G01X-2458660D01*
G03X-2479074Y4045660I0J-20414D01*
G01Y3975660D01*
G03X-2458660Y3955246I20414J0D01*
G01X-2333659D01*
G01X-2666374Y3969542D02*
G03X-2645960Y3949129I20414J0D01*
G01X-2555960D01*
G03X-2535546Y3969542I0J20414D01*
G01Y4049542D01*
G03X-2555960Y4069956I-20414J0D01*
G01X-2645960D01*
G03X-2666374Y4049542I0J-20414D01*
G01Y3969542D01*
G01X-2075014Y4043202D02*
G03X-2071330Y4031505I20414J0D01*
G01X-2263993D01*
G01Y4050951D01*
G03X-2258661Y4050242I5332J19705D01*
G01X-2133660D01*
G03X-2113246Y4070656I0J20414D01*
G01Y4140656D01*
G03X-2117493Y4153121I-20414J0D01*
G01X-1973930D01*
G01Y4143616D01*
G01X-2054600D01*
G03X-2075014Y4123202I0J-20414D01*
G01Y4043202D01*
G01X-2117493Y3868199D02*
G03X-2113246Y3880664I-16166J12465D01*
G01Y3950664D01*
G03X-2133660Y3971078I-20414J0D01*
G01X-2258661D01*
G03X-2263993Y3970369I0J-20414D01*
G01Y3987805D01*
G01X-2074487D01*
G03X-2075014Y3983198I19887J-4608D01*
G01Y3903198D01*
G03X-2054600Y3882784I20414J0D01*
G01X-1974311D01*
G01Y3868199D01*
G01X-2117493D01*
G01X-1910773Y4095869D02*
G01X-1910773Y4205325D01*
G01X-1882889D01*
G03X-1885014Y4196258I18289J-9068D01*
G01Y4116258D01*
G03X-1865618Y4095869I20414J0D01*
G01X-1910773D01*
G01X-1885014Y4256263D02*
G01X-1884934Y4254461D01*
G01X-1909841Y4254462D01*
G01Y4355102D01*
G01X-1872462D01*
G03X-1885014Y4336262I7862J-18839D01*
G01Y4256263D01*
G01X-1773582Y4095869D02*
G03X-1754186Y4116258I-1018J20389D01*
G01Y4196258D01*
G03X-1756310Y4205325I-20414J0D01*
G01X-1702549D01*
G03X-1704674Y4196258I18289J-9068D01*
G01Y4116258D01*
G03X-1685278Y4095869I20414J0D01*
G01X-1773582D01*
G01X-1704674Y4256263D02*
G01X-1704593Y4254452D01*
G01X-1754266Y4254454D01*
G01X-1754186Y4256263D01*
G01Y4336262D01*
G03X-1766738Y4355102I-20414J0D01*
G01X-1692122D01*
G03X-1704674Y4336262I7862J-18839D01*
G01Y4256263D01*
G54D10*
G01X-2396160Y4010660D02*
G01X-2474408Y4010660D01*
G01X-2396160Y4010660D02*
G01X-2317911Y4010660D01*
G01X-2396160Y4010660D02*
G01X-2396160Y4061408D01*
G01X-2396160Y4010660D02*
G01X-2396160Y3959912D01*
G01X-2600960Y4009542D02*
G01X-2600960Y3953794D01*
G01X-2600960Y4009542D02*
G01X-2600960Y4065290D01*
G01X-2600960Y4009542D02*
G01X-2661708Y4009542D01*
G01X-2600960Y4009542D02*
G01X-2540212Y4009542D01*
G01X-2841320Y4011181D02*
G01X-2745572Y4011181D01*
G01X-2841320Y4011181D02*
G01X-2937068Y4011181D01*
G01X-2009600Y4083202D02*
G01X-2009600Y4138950D01*
G01X-2009600Y4083202D02*
G01X-2070348Y4083202D01*
G01X-2196160Y4105656D02*
G01X-2117912Y4105656D01*
G01X-2196160Y4105656D02*
G01X-2196160Y4054908D01*
G01X-2196160Y3915664D02*
G01X-2117912Y3915664D01*
G01X-2196160Y3915664D02*
G01X-2196160Y3966412D01*
G01X-2009600Y3943198D02*
G01X-2009600Y3887450D01*
G01X-2009600Y3943198D02*
G01X-2070348Y3943198D01*
G01X-1819600Y4156258D02*
G01X-1880348Y4156258D01*
G01X-1819600Y4156258D02*
G01X-1758852Y4156258D01*
G01X-1639260Y4156258D02*
G01X-1700008Y4156258D01*
G01X-1819600Y4296262D02*
G01X-1880348Y4296262D01*
G01X-1819600Y4296262D02*
G01X-1758852Y4296262D01*
G01X-1639260Y4296262D02*
G01X-1700008Y4296262D01*
G01X-2600960Y3869538D02*
G01X-2600960Y3813790D01*
G01X-2600960Y3869538D02*
G01X-2661708Y3869538D01*
G01X-2600960Y3869538D02*
G01X-2540212Y3869538D01*
G01X-2196160Y3915664D02*
G01X-2117912Y3915664D01*
G01X-2196160Y3915664D02*
G01X-2196160Y3966412D01*
G01X-2196160Y3915664D02*
G01X-2196160Y3864916D01*
G01X-2009600Y3943198D02*
G01X-2009600Y3887450D01*
G01X-2009600Y3943198D02*
G01X-2070348Y3943198D01*
G01X-2009600Y3943198D02*
G01X-1948852Y3943198D01*
G01X-1819600Y4156258D02*
G01X-1819600Y4100510D01*
G01X-1819600Y4156258D02*
G01X-1880348Y4156258D01*
G01X-1819600Y4156258D02*
G01X-1758852Y4156258D01*
G01X-1639260Y4156258D02*
G01X-1639260Y4100510D01*
G01X-1639260Y4156258D02*
G01X-1700008Y4156258D01*
G01X-1474622Y4665980D02*
G01X-1530370Y4665980D01*
G01X-1474622Y4665980D02*
G01X-1418874Y4665980D01*
G01X-1474622Y4665980D02*
G01X-1474622Y4726728D01*
G01X-1474622Y4665980D02*
G01X-1474622Y4605232D01*
G01X-1474622Y4846320D02*
G01X-1530370Y4846320D01*
G01X-1474622Y4846320D02*
G01X-1418874Y4846320D01*
G01X-1474622Y4846320D02*
G01X-1474622Y4907068D01*
G01X-1474622Y4846320D02*
G01X-1474622Y4785572D01*
G01X-1327158Y4061460D02*
G01X-1271410Y4061460D01*
G01X-1327158Y4061460D02*
G01X-1382906Y4061460D01*
G01X-1327158Y4061460D02*
G01X-1327158Y4000712D01*
G01X-1327158Y4061460D02*
G01X-1327158Y4122208D01*
G01X-1302080Y4341190D02*
G01X-1276332Y4341190D01*
G01X-1104900Y4433722D02*
G01X-1104900Y4489470D01*
G01X-1104900Y4433722D02*
G01X-1104900Y4377974D01*
G01X-1104900Y4433722D02*
G01X-1044152Y4433722D01*
G01X-1104900Y4433722D02*
G01X-1165648Y4433722D01*
G01X-943204Y4663440D02*
G01X-887132Y4663440D01*
G01X-943204Y4663440D02*
G01X-999275Y4663440D01*
G01X-943204Y4663440D02*
G01X-943204Y4604492D01*
G01X-943204Y4663440D02*
G01X-943204Y4722388D01*
G01X-924560Y4433722D02*
G01X-924560Y4489470D01*
G01X-924560Y4433722D02*
G01X-924560Y4377974D01*
G01X-924560Y4433722D02*
G01X-863812Y4433722D01*
G01X-924560Y4433722D02*
G01X-985308Y4433722D01*
G01X-3041320Y3776180D02*
G01X-3041320Y3846928D01*
G01X-3041320Y3776180D02*
G01X-2850572Y3776180D01*
G01X-3041320Y3776180D02*
G01X-3232067Y3776180D01*
G01X-3041320Y4946180D02*
G01X-3041320Y4875432D01*
G01X-3041320Y4946180D02*
G01X-2850572Y4946180D01*
G01X-3041320Y4946180D02*
G01X-3232067Y4946180D01*
G01X-2841320Y4711179D02*
G01X-2841320Y4806927D01*
G01X-2841320Y4711179D02*
G01X-2841320Y4615431D01*
G01X-2841320Y4711179D02*
G01X-2745572Y4711179D01*
G01X-2841320Y4711179D02*
G01X-2937068Y4711179D01*
G04 Copper End*

G04 PolygonModel Start*
G01X-1502080Y4301185D02*
G01X-1634337Y4301185D01*
G01X-1639260Y4296262D01*
G54D11*
G01X-1819600Y4296262D02*
G01X-1639260Y4296262D01*
G01X-1819600Y4156258D02*
G01X-1639260Y4156258D01*
G54D12*
G01X-1502080Y4261180D02*
G01X-1502080Y4197923D01*
G01X-1540001Y4160002D01*
G01X-1635515D01*
G01X-1639260Y4156258D01*
G54D11*
G01X-2009600Y4083202D02*
G01X-2009600Y4296845D01*
G01X-1820182D01*
G01X-1819600Y4296262D01*
G01X-924560Y4293718D02*
G01X-1104900Y4293718D01*
G01X-924560Y4433722D02*
G01X-1104900Y4433722D01*
G01X-1334618Y4846320D02*
G01X-1334618Y4665980D01*
G01X-1474622Y4665980D02*
G01X-1474622Y4846320D01*
G01X-943959Y4665979D02*
G01X-943959Y4450742D01*
G01X-929480Y4436262D01*
G54D10*
G01X-1342085Y4461180D02*
G01X-1342085Y4658512D01*
G01X-1334618Y4665980D01*
G54D11*
G01X-1467162Y4061460D02*
G01X-1467162Y3896614D01*
G01X-1472496Y3891280D01*
G54D10*
G01X-1302080Y4341190D02*
G01X-1264211Y4341190D01*
G01X-1175316Y4430085D01*
G01Y4433283D01*
G01X-1105339D01*
G01X-1104900Y4433722D01*
G01X-1342085Y4301185D02*
G01X-1112368Y4301185D01*
G01X-1104900Y4293718D01*
G01X-1342085Y4341190D02*
G01X-1382090Y4341190D01*
G01Y4238930D01*
G01X-1467162Y4153858D01*
G01Y4061460D01*
G54D13*
G01X-1382090Y4421175D02*
G01X-1342085Y4421175D01*
G01X-1099820Y4663440D02*
G01X-1093876Y4663440D01*
G54D14*
G01X-1342085Y4421175D02*
G01X-1302080Y4461180D01*
G54D10*
G01X-1098041Y4663440D02*
G01X-1300301Y4461180D01*
G01X-1302080D01*
G01X-1462075Y4381170D02*
G01X-1502080Y4381170D01*
G54D15*
G01X-1462075Y4421175D02*
G01X-1422070Y4421175D01*
G01Y4461180D01*
G54D14*
G01X-1502080Y4421175D02*
G01X-1462075Y4461180D01*
G54D15*
G01X-1462075Y4461180D02*
G01X-1462075Y4500002D01*
G01X-1650001D01*
G01X-1422070Y4461180D02*
G01X-1422070Y4550003D01*
G01X-1570001D01*
G01X-1650001Y4630002D01*
G01Y4900003D01*
G01X-1476661Y3891281D02*
G01X-1638722Y3891281D01*
G01X-1640001Y3890002D01*
G04 PolygonModel End*

G04 Pad Start*
G54D17*
G01X-474980Y4894580D03*
G01X-475130Y3824580D03*
G54D18*
G01X-2500000Y4800000D03*
G01X-900000Y3900000D03*
G54D10*
G01X-1502080Y4461180D03*
G01X-1462075Y4461180D03*
G01X-1422070Y4461180D03*
G01X-1382090Y4461180D03*
G01X-1342085Y4461180D03*
G01X-1302080Y4461180D03*
G01X-1502080Y4421175D03*
G01X-1462075Y4421175D03*
G01X-1422070Y4421175D03*
G01X-1382090Y4421175D03*
G01X-1342085Y4421175D03*
G01X-1302080Y4421175D03*
G01X-1502080Y4381170D03*
G01X-1462075Y4381170D03*
G01X-1422070Y4381170D03*
G01X-1382090Y4381170D03*
G01X-1342085Y4381170D03*
G01X-1302080Y4381170D03*
G01X-1502080Y4341190D03*
G01X-1462075Y4341190D03*
G01X-1422070Y4341190D03*
G01X-1382090Y4341190D03*
G01X-1342085Y4341190D03*
G01X-1302080Y4341190D03*
G01X-1502080Y4301185D03*
G01X-1462075Y4301185D03*
G01X-1422070Y4301185D03*
G01X-1382090Y4301185D03*
G01X-1342085Y4301185D03*
G01X-1302080Y4301185D03*
G01X-1502080Y4261180D03*
G01X-1462075Y4261180D03*
G01X-1422070Y4261180D03*
G01X-1382090Y4261180D03*
G01X-1342085Y4261180D03*
G01X-1302080Y4261180D03*
G54D19*
G01X-1334618Y4846320D03*
G01X-1474622Y4846320D03*
G01X-1334618Y4665980D03*
G01X-1474622Y4665980D03*
G54D20*
G01X-924560Y4293718D03*
G01X-924560Y4433722D03*
G01X-1104900Y4293718D03*
G01X-1104900Y4433722D03*
G54D21*
G01X-1819600Y4296262D03*
G01X-1819600Y4156258D03*
G01X-1639260Y4296262D03*
G01X-1639260Y4156258D03*
G54D22*
G01X-2196160Y3915664D03*
G01X-2196160Y4105656D03*
G01X-2396160Y4010660D03*
G54D21*
G01X-2009600Y4083202D03*
G01X-2009600Y3943198D03*
G01X-2600960Y4009542D03*
G01X-2600960Y3869538D03*
G54D23*
G01X-1321824Y3891280D03*
G01X-1472496Y3891280D03*
G54D24*
G01X-1467162Y4061460D03*
G01X-1327158Y4061460D03*
G54D25*
G01X-1093876Y4663440D03*
G01X-943204Y4663440D03*
G54D26*
G01X-3041320Y3776180D03*
G01X-3041320Y4946180D03*
G54D27*
G01X-2841320Y4711179D03*
G01X-2841320Y4461193D03*
G01X-2841320Y4261193D03*
G01X-2841320Y4011181D03*
G04 Pad End*

G04 Via Start*
G54D28*
G01X-2200000Y4200000D03*
G01X-2009600Y4296845D03*
G01X-1936744Y4296845D03*
G01X-2009600Y4223750D03*
G01X-2196160Y4105656D03*
G01X-924560Y4293718D03*
G01X-1104900Y4293718D03*
G01X-1334618Y4665980D03*
G01X-1334618Y4846320D03*
G01X-1317659Y3891279D03*
G01X-1650001Y4500002D03*
G01X-1650001Y4900003D03*
G01X-2200000Y4640170D03*
G01X-1640001Y3890002D03*
G54D29*
G01X-3200000Y4800000D03*
G01X-2600000Y4200000D03*
G01X-2400000Y4200000D03*
G01X-2600000Y4600000D03*
G01X-2400000Y4600000D03*
G01X-2000000Y4800000D03*
G01X-1100000Y4800000D03*
G01X-700000Y4000000D03*
G01X-700000Y3800000D03*
G01X-1100000Y4000000D03*
G01X-1100000Y3800000D03*
G01X-2000000Y3800000D03*
G01X-2000000Y4600000D03*
G04 Via End*

G04 Track Start*
G54D15*
G01X-1502080Y4461180D02*
G01X-1519830Y4461180D01*
G01X-1541925Y4439085D01*
G01X-2693092Y4439085D02*
G01X-2758369Y4373809D01*
G01X-1502080Y4381170D02*
G01X-1519830Y4381170D01*
G01X-1541925Y4403265D01*
G01X-2758369Y4373809D02*
G01X-2835840Y4373809D01*
G01X-2841320Y4379289D01*
G01Y4461193D01*
G01X-2743531Y4337989D02*
G01X-2835840Y4337989D01*
G01X-2841320Y4332508D01*
G01Y4261193D01*
G01X-2693092Y4439085D02*
G01X-1541925Y4439085D01*
G01X-2678255Y4403265D02*
G01X-1541925Y4403265D01*
G01X-2678255Y4403265D02*
G01X-2743531Y4337989D01*
G04 Track End*

M02*
