G04 Layer: TopSolderMaskLayer*
G04 EasyEDA Pro v2.1.64.d1969c9c.217bcf, 2024-08-09 12:31:45*
G04 Gerber Generator version 0.3*
G04 Scale: 100 percent, Rotated: No, Reflected: No*
G04 Dimensions in millimeters*
G04 Leading zeros omitted, absolute positions, 3 integers and 5 decimals*
%FSLAX35Y35*%
%MOMM*%
%AMRoundRect*1,1,$1,$2,$3*1,1,$1,$4,$5*1,1,$1,0-$2,0-$3*1,1,$1,0-$4,0-$5*20,1,$1,$2,$3,$4,$5,0*20,1,$1,$4,$5,0-$2,0-$3,0*20,1,$1,0-$2,0-$3,0-$4,0-$5,0*20,1,$1,0-$4,0-$5,$2,$3,0*4,1,4,$2,$3,$4,$5,0-$2,0-$3,0-$4,0-$5,$2,$3,0*%
%ADD10C,1.102*%
%ADD11C,1.802*%
%ADD12C,0.3016*%
%ADD13RoundRect,0.09131X-0.40514X0.45514X0.40514X0.45514*%
%ADD14RoundRect,0.09131X0.45514X0.40514X0.45514X-0.40514*%
%ADD15RoundRect,0.09131X-0.45514X-0.40514X-0.45514X0.40514*%
%ADD16RoundRect,0.09017X-0.63072X0.35571X0.63072X0.35571*%
%ADD17RoundRect,0.09138X-0.40835X0.43712X0.40835X0.43712*%
%ADD18RoundRect,0.09131X0.40514X-0.45514X-0.40514X-0.45514*%
%ADD19RoundRect,0.09138X0.40835X-0.43712X-0.40835X-0.43712*%
%ADD20O,3.60199X1.102*%
%ADD21C,1.702*%
G75*


G04 Pad Start*
G54D10*
G01X-474980Y4894580D03*
G01X-475130Y3824580D03*
G54D11*
G01X-2500000Y4800000D03*
G01X-900000Y3900000D03*
G54D12*
G01X-1502080Y4461180D03*
G01X-1462075Y4461180D03*
G01X-1422070Y4461180D03*
G01X-1382090Y4461180D03*
G01X-1342085Y4461180D03*
G01X-1302080Y4461180D03*
G01X-1502080Y4421175D03*
G01X-1462075Y4421175D03*
G01X-1422070Y4421175D03*
G01X-1382090Y4421175D03*
G01X-1342085Y4421175D03*
G01X-1302080Y4421175D03*
G01X-1502080Y4381170D03*
G01X-1462075Y4381170D03*
G01X-1422070Y4381170D03*
G01X-1382090Y4381170D03*
G01X-1342085Y4381170D03*
G01X-1302080Y4381170D03*
G01X-1502080Y4341190D03*
G01X-1462075Y4341190D03*
G01X-1422070Y4341190D03*
G01X-1382090Y4341190D03*
G01X-1342085Y4341190D03*
G01X-1302080Y4341190D03*
G01X-1502080Y4301185D03*
G01X-1462075Y4301185D03*
G01X-1422070Y4301185D03*
G01X-1382090Y4301185D03*
G01X-1342085Y4301185D03*
G01X-1302080Y4301185D03*
G01X-1502080Y4261180D03*
G01X-1462075Y4261180D03*
G01X-1422070Y4261180D03*
G01X-1382090Y4261180D03*
G01X-1342085Y4261180D03*
G01X-1302080Y4261180D03*
G54D13*
G01X-1334618Y4846320D03*
G01X-1474622Y4846320D03*
G01X-1334618Y4665980D03*
G01X-1474622Y4665980D03*
G54D14*
G01X-924560Y4293718D03*
G01X-924560Y4433722D03*
G01X-1104900Y4293718D03*
G01X-1104900Y4433722D03*
G54D15*
G01X-1819600Y4296262D03*
G01X-1819600Y4156258D03*
G01X-1639260Y4296262D03*
G01X-1639260Y4156258D03*
G54D16*
G01X-2196160Y3915664D03*
G01X-2196160Y4105656D03*
G01X-2396160Y4010660D03*
G54D15*
G01X-2009600Y4083202D03*
G01X-2009600Y3943198D03*
G01X-2600960Y4009542D03*
G01X-2600960Y3869538D03*
G54D17*
G01X-1321824Y3891280D03*
G01X-1472496Y3891280D03*
G54D18*
G01X-1467162Y4061460D03*
G01X-1327158Y4061460D03*
G54D19*
G01X-1093876Y4663440D03*
G01X-943204Y4663440D03*
G54D20*
G01X-3041320Y3776180D03*
G01X-3041320Y4946180D03*
G54D21*
G01X-2841320Y4711179D03*
G01X-2841320Y4461193D03*
G01X-2841320Y4261193D03*
G01X-2841320Y4011181D03*
G04 Pad End*

M02*
