G04 Layer: TopPasteMaskLayer*
G04 EasyEDA Pro v2.1.64.d1969c9c.217bcf, 2024-08-09 12:31:45*
G04 Gerber Generator version 0.3*
G04 Scale: 100 percent, Rotated: No, Reflected: No*
G04 Dimensions in millimeters*
G04 Leading zeros omitted, absolute positions, 3 integers and 5 decimals*
%FSLAX35Y35*%
%MOMM*%
%ADD10R,0.8X0.9*%
%ADD11R,0.9X0.8*%
%ADD12R,0.9X0.8*%
%ADD13R,1.25001X0.7*%
%ADD14R,0.8X0.9*%
G75*


G04 PolygonModel Start*
G36*
G01X-1277658Y3936279D02*
G01X-1357658Y3936279D01*
G01X-1362659Y3931277D01*
G01Y3908481D01*
G01X-1325659D01*
G01Y3875481D01*
G01X-1362659D01*
G01Y3851278D01*
G01X-1357658Y3846279D01*
G01X-1277658D01*
G01X-1272659Y3851278D01*
G01Y3931277D01*
G01X-1277658Y3936279D01*
G37*
G36*
G01X-1516662Y3846281D02*
G01X-1436662Y3846281D01*
G01X-1431661Y3851283D01*
G01Y3874079D01*
G01X-1468661D01*
G01Y3907079D01*
G01X-1431661D01*
G01Y3931282D01*
G01X-1436662Y3936281D01*
G01X-1516662D01*
G01X-1521661Y3931282D01*
G01Y3851283D01*
G01X-1516662Y3846281D01*
G37*
G36*
G01X-1138042Y4618441D02*
G01X-1058042Y4618441D01*
G01X-1053041Y4623443D01*
G01Y4646239D01*
G01X-1090041D01*
G01Y4679239D01*
G01X-1053041D01*
G01Y4703442D01*
G01X-1058042Y4708441D01*
G01X-1138042D01*
G01X-1143041Y4703442D01*
G01Y4623443D01*
G01X-1138042Y4618441D01*
G37*
G36*
G01X-899038Y4708439D02*
G01X-979038Y4708439D01*
G01X-984039Y4703437D01*
G01Y4680641D01*
G01X-947039D01*
G01Y4647641D01*
G01X-984039D01*
G01Y4623438D01*
G01X-979038Y4618439D01*
G01X-899038D01*
G01X-894039Y4623438D01*
G01Y4703437D01*
G01X-899038Y4708439D01*
G37*
G04 PolygonModel End*

G04 Pad Start*
G54D10*
G01X-1334618Y4846320D03*
G01X-1474622Y4846320D03*
G01X-1334618Y4665980D03*
G01X-1474622Y4665980D03*
G54D11*
G01X-924560Y4293718D03*
G01X-924560Y4433722D03*
G01X-1104900Y4293718D03*
G01X-1104900Y4433722D03*
G54D12*
G01X-1819600Y4296262D03*
G01X-1819600Y4156258D03*
G01X-1639260Y4296262D03*
G01X-1639260Y4156258D03*
G54D13*
G01X-2196160Y3915664D03*
G01X-2196160Y4105656D03*
G01X-2396160Y4010660D03*
G54D12*
G01X-2009600Y4083202D03*
G01X-2009600Y3943198D03*
G01X-2600960Y4009542D03*
G01X-2600960Y3869538D03*
G54D14*
G01X-1467162Y4061460D03*
G01X-1327158Y4061460D03*
G04 Pad End*

M02*
